<svg version="1.1" xmlns="http://www.w3.org/2000/svg" xmlns:xlink="http://www.w3.org/1999/xlink" x="0px" y="0px" viewBox="0 0 1145.65 194.087" enable-background="new 0 0 1145.65 194.087" xml:space="preserve"> <path d="M141.245,12.084h9.525v69.055h-9.525V48.951h-7.62V78.69h-9.314V64.145c-7.832,2.377-18.697,3.6-33.162,3.6 V21.373h26.953v9.649h-17.075v27.146c6.915,0,15.523-0.863,23.284-3.023V14.82h9.314v24.122h7.62V12.084z" /> <path d="M157.688,62.561c16.44-7.488,25.471-19.226,28.152-30.963v-0.287h-24.13v-9.722h36.195 c-1.905,24.194-15.24,40.828-33.302,49.973L157.688,62.561z M207.713,12.084h10.442V81.21h-10.442V12.084z" /> <path d="M276.508,12.083h10.443v36.364h-10.443V36.351h-11.853c-1.694,8.137-8.679,12.314-17.78,12.314 c-10.584,0-18.275-5.545-18.275-16.418s7.691-16.417,18.275-16.417c8.819,0,15.663,3.887,17.638,11.592h11.995V12.083z M255.341,32.174c0-5.616-3.246-8.208-8.466-8.208c-5.222,0-8.467,2.664-8.467,8.281c0,5.688,3.245,8.281,8.467,8.281 C252.096,40.528,255.341,37.935,255.341,32.174 M276.508,58.313v-6.625h10.443v29.307h-46.427V51.688h10.372v6.625H276.508z M276.649,72.354l0.07-6.12h-26.035v6.12H276.649z" /> <path d="M331.617,39.448V14.821h9.314v63.87h-9.314V49.528h-5.716c-1.057,13.825-7.055,20.305-15.098,20.305 c-8.891,0-15.17-7.92-15.17-24.914c0-16.921,6.279-24.842,15.17-24.842c7.902,0,13.759,6.193,15.028,19.371H331.617z M316.73,44.919 c0-10.009-2.118-15.121-5.787-15.121c-3.739,0-5.855,5.112-5.855,15.121c0,10.081,2.116,15.194,5.855,15.194 C314.612,60.113,316.73,55,316.73,44.919 M347.633,12.084h9.525v69.055h-9.525V12.084z" /> <path d="M391.381,19.141c-0.353,7.848-1.411,14.977-3.246,21.458l18.98,20.162l-6.42,7.776l-16.158-17.713 c-3.246,7.561-7.621,13.969-12.841,19.442l-8.185-7.561c10.443-10.153,16.722-24.051,17.357-43.852L391.381,19.141z M414.101,12.084 h10.442V81.21h-10.442V43.551h-16.792v-9.793h16.792V12.084z" /> <path d="M487.201,40.24h28.293v8.28h-67.029v-8.28h28.294v-4.538H459.19V13.74h45.58v21.962h-17.569V40.24z M469.35,69.617v4.249h39.441v7.344h-50.024V63.137h35.772v-4.032h-36.761V52.12h47.344v17.497H469.35z M469.491,28.358h24.977 V21.23h-24.977V28.358z" /> <path d="M570.603,12.084h9.524v69.055h-9.524V49.168h-7.62V78.69h-9.314V65.369 c-6.773,1.872-16.51,3.313-33.02,3.313v-28.66h17.568v-9.504h-18.274V21.23h27.306v27.29h-16.934v10.8 c8.679,0,16.51-1.08,23.354-2.807V14.82h9.314v24.339h7.62V12.084z" /> <path d="M620.349,40.24l-4.022-4.033c-2.116,4.464-4.938,8.353-8.396,11.953l-6.844-6.336 c6.773-6.337,10.442-13.466,10.937-26.57l8.96,0.359c-0.212,4.392-0.776,8.353-1.622,11.882l5.855,5.471L620.349,40.24z M610.188,58.529h55.175v6.696h-55.175V58.529z M657.673,74.947c0,4.968-5.927,7.849-19.756,7.849 c-14.111,0-19.896-2.881-19.896-7.849c0-4.825,5.785-7.849,19.896-7.849C651.816,67.098,657.673,70.122,657.673,74.947 M619.432,43.335c7.479-6.841,11.571-14.473,11.924-28.659l9.102,0.288c-0.211,5.329-0.847,9.937-1.904,14.114l9.454,9.936 l-4.798,7.345l-8.043-8.425c-2.188,4.32-5.151,8.137-8.891,11.737L619.432,43.335z M622.324,49.96h30.834v6.12h-30.834V49.96z M647.584,74.514c0-1.368-3.105-2.015-9.737-2.015c-6.703,0-9.878,0.719-9.878,2.015c0,1.441,3.175,2.088,9.878,2.088 C644.479,76.602,647.584,75.955,647.584,74.514 M660.848,28.357h9.879v9.217h-9.879v11.161h-9.807V12.084h9.807V28.357z" /> <path d="M711.018,44.487c0,17.138-7.762,25.706-18.486,25.706s-18.557-8.568-18.557-25.706 c0-17.137,7.832-25.706,18.557-25.706S711.018,27.35,711.018,44.487 M700.646,44.487c0-10.153-2.894-15.625-8.114-15.625 s-8.113,5.472-8.113,15.625c0,10.153,2.893,15.625,8.113,15.625S700.646,54.64,700.646,44.487 M739.521,39.879v10.369h-9.877V81.21 h-10.16V12.084h10.16v27.795H739.521z" /> <path d="M778.967,46.864h28.293v8.64H740.23v-8.64h28.293v-5.401c-12.135-1.08-19.262-5.904-19.262-13.753 c0-8.785,9.243-14.041,24.484-14.041c15.31,0,24.482,5.256,24.482,14.041c0,7.849-7.127,12.673-19.262,13.753V46.864z M761.469,59.608v12.025h37.042v9.001h-47.556V59.608H761.469z M761.892,31.022c2.399,1.584,6.351,2.448,11.854,2.448 c5.502,0,9.453-0.864,11.853-2.448c0.987-0.864,1.481-2.017,1.481-3.313c0-1.295-0.422-2.448-1.481-3.24 c-2.399-1.512-6.351-2.448-11.853-2.448c-5.504,0-9.455,0.936-11.854,2.448c-1.059,0.792-1.48,1.945-1.48,3.24 C760.411,29.006,760.904,30.159,761.892,31.022" /> <path d="M867.73,48.808c-9.455,1.799-23.707,2.448-37.043,2.448V17.701h31.257v8.857h-21.167l0.141,15.841 c4.093,0,17.498-0.504,25.965-2.232L867.73,48.808z M839.366,65.657v-9.073h47.696v25.059h-10.584V65.657H839.366z M876.62,12.084 h10.442v41.404H876.62V36.855h-16.228v-9.073h16.228V12.084z" /> <path d="M961.433,55.72v8.642H933.21V81.21h-10.584V64.362h-28.223V55.72H961.433z M956.564,30.806h-57.293v-7.561 h57.293V30.806z M927.988,33.542c13.124,0,21.379,2.809,21.379,9.65c0,6.696-8.255,9.576-21.379,9.576 c-13.193,0-21.449-2.88-21.449-9.576C906.539,36.351,914.795,33.542,927.988,33.542 M945.275,19.574h-34.715v-7.129h34.715V19.574z M937.866,41.391c-1.834-0.863-5.221-1.151-9.878-1.151c-4.726,0-8.113,0.359-9.948,1.151c-0.847,0.504-1.199,1.08-1.199,1.801 c0,0.647,0.353,1.296,1.199,1.8c1.835,0.719,5.223,1.152,9.948,1.152c4.657,0,8.044-0.36,9.878-1.152c0.847-0.504,1.2-1.153,1.2-1.8 C939.066,42.471,938.713,41.895,937.866,41.391" /> <path d="M1014.212,12.083h10.442v43.565h-10.442v-10.73h-9.596l0.635,6.913c-9.172,1.945-20.179,2.521-37.254,2.521 v-22.61h21.026v-5.977h-21.661v-8.209h30.763v21.53h-20.532v7.057c7.551,0,16.087-0.36,23.707-1.656v-7.777h12.912v-5.905H1001.3 v-8.208h12.912V12.083z M976.958,67.602v-8.857h47.696v22.898h-10.584V67.602H976.958z" /> <path d="M1036.088,88.771c4.021-4.681,5.785-9.865,5.785-15.122c0-3.816-2.258-6.624-5.08-7.345 c0.282-3.672,2.893-7.128,7.268-7.128c4.445,0,7.69,3.168,7.69,9.145c0,8.064-4.304,17.281-9.666,21.962L1036.088,88.771z" /> <path d="M62.783,164.577h28.293v9.865H24.047v-9.865h28.294v-12.602H34.066v-33.843h46.991v33.843H62.783V164.577z M44.439,142.688h26.247v-15.122H44.439V142.688z" /> <path d="M159.873,150.031v9.146h-28.223v22.25h-10.584v-22.25H92.842v-9.146H159.873z M151.193,134.334v8.642 h-47.696v-27.723h46.285v8.856h-35.773v10.225H151.193z" /> <path d="M165.873,131.311v-9.721h34.996c-1.834,24.05-14.464,40.827-31.962,50.188l-6.986-8.929 c15.947-7.704,24.484-19.586,27.094-31.251v-0.287H165.873z M229.727,140.239v10.368h-9.878v30.603h-10.16v-69.126h10.16v28.155 H229.727z" /> <path d="M260.916,136.782v-16.344h7.198v48.603h-19.686v-48.244h7.479v15.985H260.916z M255.907,160.112h5.01 v-14.617h-5.01V160.112z M283.495,136.782v-16.993h7.267v49.252h-19.333v-48.82h7.127v16.562H283.495z M278.556,160.112h4.938 v-14.617h-4.938V160.112z M315.104,139.879v10.369h-9.878v30.962h-9.313v-69.126h9.313v27.795H315.104z" /> <path d="M353.631,121.014c-1.059,9.721-4.022,18.361-8.327,25.923l13.901,14.904l-6.351,7.704L339.872,155 c-4.868,6.265-10.725,11.522-17.074,15.771l-6.563-8.426c12.983-7.849,22.226-19.514,25.26-31.467v-0.288h-21.309v-9.576H353.631z M366.825,112.084h10.442v69.126h-10.442v-25.418h-12.207v-9.001h12.207v-7.992h-12.207v-9.001h12.207V112.084z" /> <path d="M384.609,164.577h67.028v9.863h-67.028V164.577z M395.051,153.056v-34.347h46.638v9.721h-36.055v15.05H443.1 v9.576H395.051z" /> <path d="M453.404,145.999h67.029v8.856h-67.029V145.999z M464.34,139.951v-25.851h10.443v16.993h36.054v8.857H464.34 z M464.482,180.635v-21.242h10.513v12.169h36.407v9.073H464.482z" /> <path d="M584.008,150.392c-11.994,2.448-26.247,3.529-44.027,3.529l-0.987-8.714c5.08,0,9.808-0.071,14.182-0.216 v-13.249h9.525v12.817c7.62-0.432,14.253-1.224,20.462-2.448L584.008,150.392z M568.344,140.599 c1.059-4.967,1.482-11.521,1.552-15.77h-26.105v-8.568h35.208c0,8.425-0.353,17.282-1.411,24.699L568.344,140.599z M597.555,169.042 c0,8.353-9.031,12.962-24.06,12.962c-15.099,0-24.06-4.609-24.06-12.962c0-8.208,8.961-12.962,24.06-12.962 C588.523,156.08,597.555,160.834,597.555,169.042 M586.619,168.825c0-1.224-0.494-2.304-1.623-3.024 c-2.47-1.151-6.139-1.872-11.501-1.872c-5.362,0-9.031,0.721-11.501,1.872c-1.129,0.721-1.622,1.801-1.622,3.024 c0,1.296,0.493,2.306,1.622,3.098c2.399,1.15,6.139,1.872,11.501,1.872c5.362,0,9.031-0.722,11.501-1.872 C586.125,171.131,586.619,170.121,586.619,168.825 M596.99,132.318h10.09v9.217h-10.09v14.833h-10.019v-44.283h10.019V132.318z" /> <path d="M641.938,164.577h32.668v9.864h-67.029v-9.864h23.989v-24.698h10.372V164.577z M651.957,155.648 c1.765-9.146,2.47-18.146,2.682-27.291h-38.665v-9.505h49.319c-0.142,13.538-1.129,26.283-2.893,37.443L651.957,155.648z" /> <path d="M676.585,162.489c19.756,0,34.432-0.864,47.414-3.601l1.129,9.36c-12.912,2.809-28.081,4.104-47.344,4.104 L676.585,162.489z M681.807,136.206c0-11.304,7.902-17.424,18.697-17.424s18.697,6.12,18.697,17.424 c0,11.306-7.902,17.498-18.697,17.498S681.807,147.512,681.807,136.206 M709.253,136.206c0-5.688-3.315-8.928-8.749-8.928 c-5.362,0-8.679,3.239-8.679,8.928c0,5.761,3.316,9.001,8.679,9.001C705.938,145.207,709.253,141.967,709.253,136.206 M727.668,112.084h10.16v69.126h-10.16V112.084z" /> <path d="M766.479,168.465v-48.603h9.736v15.552h15.733v-15.552h9.737v48.603H766.479z M776.215,158.889h15.733 v-14.258h-15.733V158.889z M812.763,112.084h10.442v69.126h-10.442V112.084z" /> <path d="M865.543,130.231c-5.574,10.296-16.58,17.136-29.352,20.448l-4.656-8.425 c14.394-3.24,22.789-9.863,26.035-16.201v-0.287h-22.154v-8.569h34.008c-0.141,1.8-0.424,3.6-0.847,5.256h12.982v-10.369h10.442 v35.499H881.56v-3.744h-15.382v-7.704h15.382v-5.903H865.543z M856.089,173.794h38.383v7.562h-48.967v-18.938h35.913v-4.393h-37.183 v-7.345h47.767v18.507h-35.913V173.794z" /> <path d="M899.555,162.489c19.756,0,34.432-0.864,47.414-3.601l1.129,9.36c-12.912,2.809-28.082,4.104-47.344,4.104 L899.555,162.489z M904.775,136.206c0-11.304,7.902-17.424,18.698-17.424c10.795,0,18.697,6.12,18.697,17.424 c0,11.306-7.902,17.498-18.697,17.498C912.678,153.704,904.775,147.512,904.775,136.206 M932.223,136.206 c0-5.688-3.316-8.928-8.749-8.928c-5.362,0-8.679,3.239-8.679,8.928c0,5.761,3.316,9.001,8.679,9.001 C928.906,145.207,932.223,141.967,932.223,136.206 M950.638,112.084h10.16v69.126h-10.16V112.084z" /> <path d="M1014.143,161.553c6.632-0.504,12.629-1.225,18.273-2.305l1.059,9.362 c-12.771,2.52-27.94,3.743-47.344,3.743l-1.199-9.864c6.985,0,13.335-0.072,19.191-0.36v-11.737h-12.77v-30.459h34.783v9.001 h-24.836v12.745h25.895v8.713h-13.053V161.553z M1036.015,112.084h10.16v69.126h-10.16V112.084z" /> <path d="M1121.604,140.239v10.368h-9.879v30.603h-10.16v-19.08c-10.865,3.672-26.035,5.472-43.886,5.472v-46.948 h34.079v9.648h-23.566l0.07,27.58c8.82,0,22.297-1.298,33.303-4.754v-41.044h10.16v28.155H1121.604z" /></svg>