<svg version="1.1" xmlns="http://www.w3.org/2000/svg" xmlns:xlink="http://www.w3.org/1999/xlink" x="0px" y="0px" viewBox="0 0 205 86" enable-background="new 0 0 205 86" xml:space="preserve"> <path d="M14.151,5.34h1.061l0.06,0.16v4.304c0,1.822-0.22,2.302-2.102,4.284l-5.445,5.666l-1.842-1.722l-0.48-0.44l0.22-0.3 l1.261-0.34l4.645-4.845c0.881-0.901,1.101-1.361,1.101-2.823V8.223H7.845L6.624,8.883l-0.32-0.04V5.16l0.32-0.04L7.845,5.78h5.365 L14.151,5.34z M21.418,3.678l0.06,0.3L20.737,5.24v16.356l-1.421,1.081h-1.101l-0.06-0.2V5.24l-0.741-1.261l0.06-0.3H21.418z" /> <path d="M29.051,13.248c-2.923,0-4.805-1.642-4.805-4.464c0-2.843,1.882-4.464,4.805-4.464c2.883,0,4.765,1.622,4.765,4.464 C33.815,11.606,31.934,13.248,29.051,13.248z M36.338,14.629h3.503l0.06,0.32l-0.581,0.941v6.026l-1.281,0.881h-1.121l-0.04-0.2 v-0.24H28.65l-0.641,0.44h-1.121l-0.04-0.2V15.89l-0.581-0.941l0.04-0.32h3.523l0.04,0.32l-0.581,0.941v0.621h7.587V15.89 l-0.581-0.941L36.338,14.629z M29.051,10.945c1.401,0,2.242-0.801,2.242-2.162s-0.841-2.162-2.242-2.162 c-1.441,0-2.282,0.801-2.282,2.162S27.609,10.945,29.051,10.945z M29.291,20.294h7.587v-1.842h-7.587V20.294z M35.417,10.205 l-0.721,0.42l-0.28-0.04V7.822h2.362V5.2l-0.741-1.221l0.06-0.3h3.944l0.06,0.3L39.361,5.2v7.748l-1.421,0.861h-1.101l-0.06-0.2 v-3.403H35.417z" /> <path d="M50.317,11.826v0.5c0,5.105-1.662,6.767-4.044,6.767c-2.402,0-4.064-1.662-4.064-6.767v-0.5 c0-5.105,1.662-6.767,4.064-6.767C48.655,5.06,50.317,6.721,50.317,11.826z M47.995,12.066c0-3.523-0.601-4.705-1.722-4.705 c-1.141,0-1.742,1.181-1.742,4.705v0.02c0,3.523,0.601,4.685,1.742,4.685c1.121,0,1.722-1.161,1.722-4.685V12.066z M51.838,4.079 h3.163l0.04,0.3l-0.44,1.081v15.235l-1.241,1.081h-1.001l-0.04-0.2v-8.548h-0.661l-0.541,0.32l-0.26-0.04v-2.803h1.461V5.46 l-0.541-1.081L51.838,4.079z M59.065,3.678l0.06,0.3L58.545,5.12v16.436l-1.241,1.121h-1.021l-0.04-0.2V5.12l-0.48-1.141l0.06-0.3 H59.065z" /> <path d="M71.603,16.831l0.921,0.5l0.1,0.3l-2.542,1.441l-3.543-6.026l-3.604,6.146l-2.522-1.441l0.1-0.3l0.921-0.5l3.784-6.506 V6.581L64.476,5.34l0.04-0.3h4.004l0.06,0.3l-0.741,1.241v3.864L71.603,16.831z M77.289,3.678l0.06,0.3L76.608,5.24v16.356 l-1.421,1.081h-1.101l-0.06-0.2V11.706h-2.442l-0.941,0.48l-0.26-0.04V9.284h3.644V5.24l-0.741-1.261l0.06-0.3H77.289z" /> <path d="M89.627,12.207l-1.542-2.623l-1.762,2.983l-1.662-0.921l-0.34-0.2l0.1-0.3l0.821-0.541l1.682-2.903V5.68l-0.621-1.041 l0.06-0.3h3.343l0.06,0.3L89.147,5.68v1.862l1.582,2.803l1.521-2.803V5.68l-0.621-1.041l0.04-0.3h3.383l0.04,0.3L94.472,5.68v2.002 l1.682,2.923l0.821,0.541l0.1,0.3l-0.34,0.2l-1.642,0.921l-1.762-2.983l-1.501,2.623l-0.12,0.12h-1.962L89.627,12.207z M98.876,14.989l1.081-0.661l0.3,0.06v3.143l-0.3,0.06l-1.081-0.641h-10.71l-1.081,0.641l-0.32-0.06v-3.143l0.32-0.06l1.081,0.661 h4.024v-0.661l-0.641-0.861l0.04-0.3h3.704l0.04,0.3l-0.641,0.861v0.661H98.876z M93.671,17.832c3.944,0,5.786,0.641,5.786,2.583 c0,1.922-1.842,2.563-5.786,2.563h-0.3c-3.964,0-5.766-0.641-5.766-2.563c0-1.942,1.802-2.583,5.766-2.583H93.671z M93.651,21.215 c2.522,0,3.263-0.26,3.263-0.801c0-0.561-0.741-0.821-3.263-0.821h-0.28c-2.522,0-3.263,0.26-3.263,0.821 c0,0.541,0.741,0.801,3.263,0.801H93.651z M101.879,6.761l0.28,0.06v3.143l-0.28,0.06l-0.821-0.521h-1.201v3.143l-1.241,0.861 h-0.981l-0.06-0.2V5.18l-0.681-1.201l0.06-0.3h3.523l0.06,0.3L99.857,5.18v2.102h1.201L101.879,6.761z" /> <path d="M113.296,11.806v0.601c0,5.165-2.042,6.787-4.845,6.787c-2.823,0-4.865-1.622-4.865-6.787v-0.601 c0-5.145,2.042-6.787,4.865-6.787C111.254,5.02,113.296,6.661,113.296,11.806z M110.714,12.086c0-3.624-0.861-4.625-2.262-4.625 c-1.421,0-2.282,1.001-2.282,4.625v0.04c0,3.624,0.861,4.645,2.282,4.645c1.401,0,2.262-1.021,2.262-4.645V12.086z M120.503,10.165 l0.28,0.04v3.423l-0.28,0.04l-0.821-0.541h-1.501v8.468l-1.401,1.081h-1.101l-0.04-0.2V5.24l-0.761-1.261l0.06-0.3h3.944l0.04,0.3 l-0.741,1.261v5.465h1.501L120.503,10.165z" /> <path d="M138.707,12.687l0.32,0.06v3.403l-0.32,0.06l-1.121-0.641h-14.334l-1.121,0.641l-0.32-0.06v-3.403l0.32-0.06l1.121,0.641 h5.886v-1.622c-3.423-0.24-5.145-1.622-5.145-3.924c0-2.522,2.102-3.944,6.266-3.944h0.34c4.144,0,6.246,1.421,6.246,3.944 c0,2.302-1.722,3.684-5.145,3.924v1.622h5.886L138.707,12.687z M135.744,19.974l1.141-0.641l0.32,0.04v3.443l-0.32,0.04 l-1.141-0.621h-8.949l-0.901,0.521h-1.121l-0.06-0.18v-4.424l-0.681-1.041l0.04-0.3h3.924l0.04,0.3l-0.681,1.041v1.822H135.744z M130.338,9.504h0.2c2.663,0,3.704-0.641,3.704-1.722c0-1.061-1.041-1.702-3.704-1.702h-0.2c-2.683,0-3.704,0.641-3.704,1.702 C126.635,8.863,127.656,9.504,130.338,9.504z" /> <path d="M155.83,13.248h-7.227l-0.601,0.34h-1.121l-0.06-0.18V7.001l-0.46-0.781V4.959l0.06-0.04h8.749l0.2,0.04v1.101l-0.941,1.221 h-5.005v3.583h7.127l0.18,0.04v1.101L155.83,13.248z M148.703,14.909l1.161,0.601h11.431v6.486l-1.481,0.901h-1.121l-0.04-0.2 v-4.805h-8.789l-1.161,0.601l-0.3-0.04v-3.503L148.703,14.909z M161.976,3.678l0.06,0.3L161.295,5.2v8.448l-1.421,0.901h-1.101 l-0.06-0.2V9.904h-2.322l-0.761,0.28l-0.26-0.06V7.682h3.343V5.2l-0.741-1.221l0.06-0.3H161.976z" /> <path d="M180.98,14.509l0.3,0.06v3.323l-0.3,0.04l-1.301-0.601h-5.646v4.765l-1.441,1.041h-1.121l-0.06-0.2v-5.605h-5.666 l-1.301,0.601l-0.3-0.04v-3.323l0.3-0.06l1.301,0.621h13.934L180.98,14.509z M167.327,7.162l-1.141,0.661l-0.32-0.06V4.459 l0.32-0.04l1.141,0.641h4.144V4.499l-0.681-0.941l0.04-0.3h3.764l0.04,0.3l-0.681,0.941V5.06h4.144l1.141-0.641l0.32,0.04v3.303 l-0.32,0.06l-1.141-0.661H167.327z M172.772,8.022c4.104,0,5.846,0.901,5.846,2.903s-1.742,2.903-5.846,2.903h-0.12 c-4.104,0-5.846-0.901-5.846-2.903s1.742-2.903,5.846-2.903H172.772z M172.792,11.926c2.583,0,3.323-0.32,3.323-1.001 c0-0.701-0.741-1.021-3.323-1.021h-0.16c-2.583,0-3.323,0.32-3.323,1.021c0,0.681,0.741,1.001,3.323,1.001H172.792z" /> <path d="M199.203,3.678l0.02,0.3l-0.681,1.081v9.129l-1.421,0.941h-1.101l-0.06-0.2v-3.003h-1.602l-0.18,0.08l0.06,0.02v0.981 l-0.821,1.041h-7.647l-0.701,0.38h-1.061l-0.06-0.2v-3.904l-0.44-0.681V8.543l0.06-0.04h6.466V6.981h-5.065l-1.061,0.48l-0.3-0.04 V4.399l0.3-0.06l1.061,0.581h5.365l1.021-0.44h1.101v5.866h-6.066v1.642h7.067V9.844h2.502V8.383h-1.622l-0.621,0.3l-0.26-0.04 V6.301h2.502V5.06l-0.681-1.081l0.04-0.3H199.203z M185.95,15.51l1.141,0.581h11.451v5.906l-1.481,0.901h-1.121l-0.04-0.2v-4.244 h-8.809l-1.141,0.601l-0.3-0.04V15.55L185.95,15.51z" /> <path d="M52.151,46.551l0.32,0.04v3.864l-0.32,0.06l-1.281-0.741H36.976l-1.281,0.741l-0.32-0.06v-3.864l0.32-0.04l1.281,0.721 h5.706V45.59l-0.44-0.821l0.04-0.26h2.943v2.763h5.646L52.151,46.551z M37.677,37.362l-0.601-0.921V35.16l0.06-0.04h10.851 l1.121-0.46h1.121v8.688l-1.401,0.801h-1.121l-0.04-0.16v-0.32h-7.988l-0.841,0.48h-1.121l-0.04-0.16V37.362z M47.667,41.286v-3.784 h-7.427v3.784H47.667z" /> <path d="M70.814,43.428l0.3,0.06v3.764l-0.3,0.04l-1.301-0.741h-5.646v5.545l-1.441,1.041h-1.121l-0.06-0.2v-6.386H55.58 l-1.301,0.741l-0.3-0.04v-3.764l0.3-0.06l1.301,0.741h13.934L70.814,43.428z M55.84,35.84v-1.241l0.06-0.06h11.591l1.061-0.541 l0.3,0.06v3.243l-0.3,0.04l-1.101-0.521h-8.348v2.863h8.428l1.101-0.521l0.3,0.04v3.243l-0.3,0.04l-1.101-0.541h-9.249l-0.681,0.44 H56.46l-0.02-0.2v-5.445L55.84,35.84z" /> <path d="M81.29,35.34h1.041l0.06,0.16v4.304c0,1.822-0.22,2.282-2.082,4.304l-5.245,5.646l-2.322-2.102l0.22-0.28l1.241-0.38 l4.444-4.825c0.881-0.921,1.121-1.401,1.121-2.883v-1.061h-4.625l-1.201,0.661l-0.3-0.04V35.16l0.3-0.04l1.201,0.661h5.205 L81.29,35.34z M89.918,40.004l0.26,0.04v3.423l-0.26,0.04l-0.821-0.561h-1.501v8.648l-1.401,1.081h-1.101l-0.04-0.2V35.24 l-0.761-1.261l0.06-0.3h3.944l0.04,0.3l-0.741,1.261v5.305h1.501L89.918,40.004z" /> <path d="M100.135,35.4h2.142l0.04,0.3l-0.18,0.861v11.711l-0.921,0.801h-0.881l-0.06-0.16v-0.34h-1.642l-0.581,0.5h-0.901 l-0.04-0.16V36.561l-0.38-0.861l0.06-0.3h2.542l0.04,0.3l-0.38,0.861v3.804h1.281v-3.804l-0.18-0.861L100.135,35.4z M98.994,46.491 h1.281v-4.044h-1.281V46.491z M105.801,35.4h2.502l0.06,0.3l-0.38,0.861v11.711l-0.941,0.801h-0.881l-0.06-0.16v-0.34h-1.622 l-0.581,0.5h-0.881l-0.06-0.16V36.561l-0.18-0.861l0.04-0.3h2.162l0.04,0.3l-0.18,0.861v3.804h1.261v-3.804l-0.36-0.861 L105.801,35.4z M104.84,46.491h1.261v-4.044h-1.261V46.491z M113.648,40.165l0.28,0.04v3.423l-0.28,0.04l-0.761-0.541h-1.301v8.468 l-1.181,1.081h-0.981l-0.04-0.2V35l-0.521-1.021l0.04-0.3h3.143l0.06,0.3L111.586,35v5.706h1.301L113.648,40.165z" /> <path d="M131.351,33.678l0.06,0.3l-0.741,1.261v16.356l-1.401,1.081h-1.101l-0.04-0.2v-7.427h-2.142l-0.661,0.42l-0.26-0.06v-2.623 h3.063v-2.102h-2.182l-0.621,0.36l-0.26-0.04v-2.442l-1.041-0.601h-2.262v4.004l3.403,4.925l0.941,0.44l0.12,0.28l-2.322,1.562 l-3.403-4.925l-3.403,4.985l-2.322-1.562l0.12-0.28l0.921-0.44l3.403-4.985v-4.004h-2.382l-1.061,0.621l-0.3-0.06V35.1l0.3-0.06 l1.061,0.621h7.187l1.061-0.621l0.3,0.06v3.323h2.743V35.24l-0.761-1.261l0.06-0.3H131.351z" /> <path d="M150.315,46.511l0.32,0.04v3.864l-0.32,0.06l-1.281-0.741H135.14l-1.281,0.741l-0.32-0.06v-3.864l0.32-0.04l1.281,0.721 h13.894L150.315,46.511z M135.38,36.521V35.22l0.06-0.06h11.531l1.121-0.601l0.3,0.04v3.523l-0.3,0.06l-1.121-0.601h-8.328v3.904 h8.428l1.101-0.581l0.3,0.04v3.543l-0.3,0.04l-1.101-0.621h-9.189l-0.741,0.5h-1.141l-0.02-0.2v-6.747L135.38,36.521z" /> <path d="M168.999,42.347l0.32,0.04v3.543l-0.32,0.04l-1.121-0.641h-14.334l-1.121,0.641l-0.32-0.04v-3.543l0.32-0.04l1.121,0.641 h14.334L168.999,42.347z M154.024,34.719l0.04-0.3h3.984l0.06,0.3l-0.721,1.061v2.843h8.128l1.181-0.601l0.3,0.04v3.443l-0.3,0.04 l-1.181-0.601h-8.789l-0.821,0.46h-1.121l-0.04-0.18V35.78L154.024,34.719z M166.036,49.874l1.141-0.661l0.32,0.04v3.583l-0.32,0.06 l-1.141-0.661h-8.949l-0.901,0.521h-1.121l-0.06-0.18v-4.625l-0.681-1.061l0.04-0.3h3.924l0.04,0.3l-0.681,1.061v1.922H166.036z" /> <path d="M35.231,73.368l-0.681,0.901h-9.589l-0.981,0.581l-0.28-0.06v-2.923l0.28-0.06l0.981,0.4h1.862v-2.402l-0.44-0.841 l0.04-0.26h2.803v3.503h5.846l0.16,0.06V73.368z M26.002,66.881l-0.981,0.561l-0.3-0.04v-3.183l0.3-0.04l0.981,0.561h5.726 l0.941-0.42h1.121v3.423c0,0.681-0.02,0.861-0.28,1.441l-0.901,2.042l-2.062-0.901l-0.38-0.18l0.08-0.2l0.661-0.521l0.3-0.701 c0.16-0.38,0.18-0.44,0.18-0.941v-0.901H26.002z M38.854,79.313c0,2.743-2.482,3.684-6.606,3.684c-4.164,0-6.646-0.941-6.646-3.684 c0-2.763,2.482-3.684,6.646-3.684C36.372,75.63,38.854,76.551,38.854,79.313z M36.292,79.313c0-1.021-1.161-1.521-4.044-1.521 c-2.903,0-4.064,0.5-4.064,1.521s1.161,1.501,4.064,1.501C35.131,80.815,36.292,80.334,36.292,79.313z M40.836,68.002l0.28,0.06 v3.243l-0.28,0.06l-0.821-0.521h-1.361v3.563l-1.381,0.861h-1.101l-0.04-0.2V65.2l-0.741-1.221l0.06-0.3h3.884l0.04,0.3L38.654,65.2 v3.323h1.361L40.836,68.002z" /> <path d="M58.939,76.391l0.32,0.06v3.884l-0.32,0.06l-1.281-0.741H43.765l-1.281,0.741l-0.32-0.06v-3.884l0.32-0.06l1.281,0.741 h3.684v-4.444l-0.5-1.061l0.04-0.26h3.123v5.766h7.547L58.939,76.391z M45.847,67.802l-1.281,0.681l-0.3-0.04v-3.804l0.3-0.04 l1.281,0.681h8.909l1.121-0.46h1.101v5.145c0,0.961-0.08,1.301-0.42,2.142l-1.321,3.203l-2.963-1.181l0.08-0.34l1.021-0.801 l0.621-1.501c0.24-0.601,0.28-0.861,0.28-1.662v-2.022H45.847z" /> <path d="M62.368,76.771h10.37l0.18,0.06v1.081l-0.681,1.361h-9.87l-1.161,0.681l-0.28-0.06V76.17l0.28-0.06L62.368,76.771z M61.708,69.824c0-3.123,1.902-4.925,4.905-4.925s4.905,1.802,4.905,4.925s-1.902,4.925-4.905,4.925S61.708,72.947,61.708,69.824z M64.27,69.824c0,1.602,0.921,2.482,2.342,2.482s2.362-0.881,2.362-2.482s-0.941-2.462-2.362-2.462S64.27,68.223,64.27,69.824z M77.283,63.678l0.04,0.3l-0.741,1.261v16.356l-1.401,1.081H74.08l-0.04-0.2V65.24l-0.761-1.261l0.06-0.3H77.283z" /> <path d="M91.644,65.34h3.624l0.06,0.3l-0.661,1.141v11.471l-1.261,0.821h-1.121l-0.04-0.18v-0.3h-4.805l-0.781,0.48h-1.121 l-0.04-0.18V66.781l-0.661-1.141l0.06-0.3h3.684l0.04,0.3l-0.641,1.141v3.343h4.264v-3.343l-0.641-1.141L91.644,65.34z M87.98,76.311h4.264v-3.964H87.98V76.311z M100.873,63.678l0.04,0.3l-0.741,1.261v16.356l-1.421,1.081h-1.101l-0.06-0.2V65.24 l-0.741-1.261l0.06-0.3H100.873z" /> <path d="M110.367,70.845l-5.926,2.683l-0.961-2.002l-0.24-0.46l0.26-0.16l1.121,0.1l4.164-1.822 c1.542-0.741,1.762-0.981,1.762-1.602v-0.46h-4.905l-1.001,0.541l-0.3-0.04v-3.143l0.3-0.04L105.643,65h5.365l0.921-0.4h1.081 l0.04,0.16v3.083C113.05,69.284,112.429,69.884,110.367,70.845z M117.935,80.334l1.061-0.44l0.32,0.06v2.943l-0.32,0.04 l-1.061-0.521h-9.409l-0.981,0.5h-1.121l-0.06-0.16v-3.964l-0.44-0.581v-1.101l0.08-0.04h10.25V75.67h-8.969l-1.001,0.42l-0.3-0.06 v-2.803l0.3-0.06l1.001,0.48h11.491v5.225h-9.87v1.461H117.935z M114.091,71.426l-0.581,0.32l-0.26-0.04v-2.202h2.943v-1.682h-1.562 l-0.561,0.34l-0.26-0.06V65.9h2.382V65.04l-0.681-1.061l0.04-0.3h3.864l0.06,0.3l-0.701,1.061v6.827l-1.401,0.841h-1.121l-0.06-0.2 v-1.081H114.091z" /> <path d="M132.154,71.806v0.621c0,5.145-2.102,6.767-4.985,6.767c-2.863,0-4.945-1.622-4.945-6.767v-0.621 c0-5.145,2.082-6.787,4.945-6.787C130.052,65.02,132.154,66.661,132.154,71.806z M129.551,72.086c0-3.624-0.901-4.625-2.382-4.625 c-1.461,0-2.362,1.001-2.362,4.625v0.04c0,3.644,0.901,4.645,2.362,4.645c1.481,0,2.382-1.001,2.382-4.645V72.086z M138.02,63.678 l0.04,0.3l-0.741,1.261v16.356l-1.421,1.081h-1.101l-0.06-0.2V65.24l-0.741-1.261l0.06-0.3H138.02z" /> <path d="M157.326,76.891l0.18,0.04v1.101l-0.681,1.341h-9.87l-1.161,0.661l-0.28-0.06v-3.704l0.28-0.04l1.161,0.661h3.523V75.29 l-0.36-0.761l0.04-0.26h2.763v2.623H157.326z M146.375,66.721V65.32l0.06-0.04h9.309l0.18,0.04v1.081l-0.841,1.321h-5.706v3.383 h6.907l0.16,0.06v1.061l-0.821,1.341h-6.867l-0.741,0.42h-1.121l-0.04-0.2v-5.966L146.375,66.721z M161.87,63.678l0.04,0.3 l-0.741,1.261v16.356l-1.401,1.081h-1.101l-0.04-0.2V65.24l-0.761-1.261l0.06-0.3H161.87z" /> <path d="M167.801,76.03h7.327l0.18,0.04v1.081l-0.921,1.361h-7.227l-0.801,0.48h-1.121l-0.06-0.18V67.882l-0.46-0.921V65.64 l0.06-0.04h9.029l0.18,0.04v1.101l-0.921,1.221h-5.265V76.03z M181.354,70.165l0.28,0.04v3.423l-0.28,0.04l-0.821-0.541h-1.501 v8.468l-1.401,1.081h-1.101l-0.04-0.2V65.24l-0.761-1.261l0.06-0.3h3.944l0.04,0.3l-0.741,1.261v5.465h1.501L181.354,70.165z" /></svg>